<mxfile host="app.diagrams.net" modified="2023-04-05T10:36:36.338Z" agent="Mozilla/5.0 (Macintosh; Intel Mac OS X 10_15_7) AppleWebKit/537.36 (KHTML, like Gecko) Chrome/111.0.0.0 Safari/537.36" version="21.1.4" etag="nUmnEA--v1zuglbLsM_c" type="github">
  <diagram name="Page-1" id="oE_wf03Wt4a3m-nr5j4s">
    <mxGraphModel>
      <root>
        <mxCell id="0" />
        <mxCell id="1" parent="0" />
      </root>
    </mxGraphModel>
  </diagram>
</mxfile>
